<!-- Chronova Asset ID: chronova-048 | Brand: Timex | Model: TW2R40000 | SKU: timex-easy-reader-38mm-leather -->
<svg xmlns="http://www.w3.org/2000/svg" viewBox="0 0 600 600" width="600" height="600">
  <rect width="600" height="600" fill="#0284c7" />
  <g stroke="#38bdf8" stroke-width="0.5" opacity="0.4">
    <line x1="0" y1="0" x2="0" y2="600" /><line x1="0" y1="0" x2="600" y2="0" /><line x1="30" y1="0" x2="30" y2="600" /><line x1="0" y1="30" x2="600" y2="30" /><line x1="60" y1="0" x2="60" y2="600" /><line x1="0" y1="60" x2="600" y2="60" /><line x1="90" y1="0" x2="90" y2="600" /><line x1="0" y1="90" x2="600" y2="90" /><line x1="120" y1="0" x2="120" y2="600" /><line x1="0" y1="120" x2="600" y2="120" /><line x1="150" y1="0" x2="150" y2="600" /><line x1="0" y1="150" x2="600" y2="150" /><line x1="180" y1="0" x2="180" y2="600" /><line x1="0" y1="180" x2="600" y2="180" /><line x1="210" y1="0" x2="210" y2="600" /><line x1="0" y1="210" x2="600" y2="210" /><line x1="240" y1="0" x2="240" y2="600" /><line x1="0" y1="240" x2="600" y2="240" /><line x1="270" y1="0" x2="270" y2="600" /><line x1="0" y1="270" x2="600" y2="270" /><line x1="300" y1="0" x2="300" y2="600" /><line x1="0" y1="300" x2="600" y2="300" /><line x1="330" y1="0" x2="330" y2="600" /><line x1="0" y1="330" x2="600" y2="330" /><line x1="360" y1="0" x2="360" y2="600" /><line x1="0" y1="360" x2="600" y2="360" /><line x1="390" y1="0" x2="390" y2="600" /><line x1="0" y1="390" x2="600" y2="390" /><line x1="420" y1="0" x2="420" y2="600" /><line x1="0" y1="420" x2="600" y2="420" /><line x1="450" y1="0" x2="450" y2="600" /><line x1="0" y1="450" x2="600" y2="450" /><line x1="480" y1="0" x2="480" y2="600" /><line x1="0" y1="480" x2="600" y2="480" /><line x1="510" y1="0" x2="510" y2="600" /><line x1="0" y1="510" x2="600" y2="510" /><line x1="540" y1="0" x2="540" y2="600" /><line x1="0" y1="540" x2="600" y2="540" /><line x1="570" y1="0" x2="570" y2="600" /><line x1="0" y1="570" x2="600" y2="570" /><line x1="600" y1="0" x2="600" y2="600" /><line x1="0" y1="600" x2="600" y2="600" />
  </g>

  <circle cx="300" cy="300" r="140" fill="none" stroke="#ffffff" stroke-width="2" />
  <circle cx="300" cy="300" r="110" fill="none" stroke="#ffffff" stroke-width="1" stroke-dasharray="4,4" />
  <rect x="230" y="90" width="140" height="70" fill="none" stroke="#ffffff" stroke-width="1.5" />
  <rect x="230" y="440" width="140" height="70" fill="none" stroke="#ffffff" stroke-width="1.5" />

  <line x1="160" y1="300" x2="440" y2="300" stroke="#fde047" stroke-width="2" />
  <text x="300" y="290" font-family="monospace" font-size="16" font-weight="900" fill="#fde047" text-anchor="middle">Ø 38MM</text>

  <line x1="230" y1="70" x2="370" y2="70" stroke="#ffffff" stroke-width="2" />
  <text x="300" y="60" font-family="monospace" font-size="12" font-weight="bold" fill="#ffffff" text-anchor="middle">LUG: 22 MM</text>

  <text x="30" y="560" font-family="monospace" font-size="12" font-weight="bold" fill="#ffffff">VIEW 10 // CAD TECHNICAL BLUEPRINT & SPECS</text>
</svg>